# xmcd
#
# Track frame offsets: 
#        150
#        13725
#        26812
#        41575
#        57772
#        70637
#        86545
#        102620
#        121590
#        137053
#        155447
#        172095
#        187890
#        202535
#        218072
#        234345
#        245055
#        261565
#        276195
#        298000
#        316415
#        335068
#
# Disc length: 4664 seconds
#
# Revision: 0
# Processed by: cddbd v1.5.2PL0 Copyright (c) Steve Scherf et al.
# Submitted via: ExactAudioCopy v1.0b3
#
DISCID=42123616
DTITLE=フランク永井 - ザ・カバーズ (歌謡曲・演歌) Disc 1 VICL-64232-33
DYEAR=1900
DGENRE=JPop
TTITLE0=カチューシャの唄
TTITLE1=星影の小径
TTITLE2=ウナ・セラ・ディ東京
TTITLE3=上を向いて歩こう
TTITLE4=雨がやんだら 
TTITLE5=アカシアの雨がやむとき
TTITLE6=君こそわが命 
TTITLE7=知床旅情 
TTITLE8=函館の女
TTITLE9=北国の春
TTITLE10=港町ブルース 
TTITLE11=潮来笠 
TTITLE12=ラブユー東京
TTITLE13=伊勢佐木町ブルース
TTITLE14=よこはま・たそがれ
TTITLE15=京都慕情 
TTITLE16=長崎は今日も雨だった
TTITLE17=カスバの女 
TTITLE18=女のみち 
TTITLE19=なみだの操 
TTITLE20=昭和ブルース
TTITLE21=誰もいない海
EXTD=
EXTT0=
EXTT1=
EXTT2=
EXTT3=
EXTT4=
EXTT5=
EXTT6=
EXTT7=
EXTT8=
EXTT9=
EXTT10=
EXTT11=
EXTT12=
EXTT13=
EXTT14=
EXTT15=
EXTT16=
EXTT17=
EXTT18=
EXTT19=
EXTT20=
EXTT21=
PLAYORDER=
